<svg width="125" height="80" viewBox="0 0 125 80" fill="none" xmlns="http://www.w3.org/2000/svg">
<path d="M16.96 73.4086V65.904H18.4521L22.1377 68.339H22.1934L25.879 65.904H27.3711V73.4086H25.5895V68.0031L23.0619 69.5985V73.4086H21.2803V69.5985L18.7416 68.0031V73.4086H16.96ZM30.5913 73.4086C29.9381 73.4086 29.4593 73.2547 29.1549 72.9467C28.858 72.6388 28.7095 72.2399 28.7095 71.7502V68.0031H30.324V71.5718C30.324 71.9916 30.5467 72.2015 30.9921 72.2015H33.3082C33.7536 72.2015 33.9763 71.9916 33.9763 71.5718V68.0031H35.5908V71.7502C35.5908 72.2399 35.4387 72.6388 35.1343 72.9467C34.8374 73.2547 34.3622 73.4086 33.709 73.4086H30.5913ZM36.5682 73.461V72.254H42.0243C42.3361 72.254 42.492 72.0896 42.492 71.7607C42.492 71.4389 42.3361 71.2779 42.0243 71.2779H38.4946C37.8338 71.2779 37.3328 71.1379 36.9914 70.858C36.6497 70.5711 36.4792 70.1617 36.4792 69.63C36.4792 69.0912 36.6497 68.6785 36.9914 68.3915C37.3401 68.0976 37.8412 67.9507 38.4946 67.9507H43.5721V69.1577H38.5725C38.2532 69.1577 38.0937 69.3046 38.0937 69.5985C38.0937 69.7455 38.1383 69.8609 38.2273 69.9449C38.3164 70.0289 38.4313 70.0708 38.5725 70.0708H42.3138C42.8928 70.0708 43.3345 70.2142 43.6389 70.5012C43.9507 70.781 44.1065 71.1903 44.1065 71.7292C44.1065 72.275 43.9507 72.7018 43.6389 73.0097C43.3271 73.3105 42.8853 73.461 42.3138 73.461H36.5682ZM45.0543 73.4086V68.0031H46.6689V73.4086H45.0543ZM45.0432 67.111V65.925H46.68V67.111H45.0432ZM50.832 73.461C49.8372 73.461 49.0616 73.2301 48.5048 72.7683C47.9481 72.2996 47.6697 71.6137 47.6697 70.7111C47.6697 69.8015 47.9481 69.1157 48.5048 68.6539C49.0616 68.1851 49.8372 67.9507 50.832 67.9507H54.5622V69.1577H50.832C50.3494 69.1577 49.9782 69.2837 49.7185 69.5356C49.466 69.7875 49.3399 70.1794 49.3399 70.7111C49.3399 71.2359 49.466 71.6242 49.7185 71.8761C49.9782 72.128 50.3494 72.254 50.832 72.254H54.6735V73.461H50.832ZM59.564 73.4086V65.904H68.071V67.2684H61.3455V69.3466H67.2025V70.7111H61.3455V73.4086H59.564ZM71.6228 73.461C70.628 73.461 69.8524 73.2301 69.2956 72.7683C68.7389 72.2996 68.4605 71.6137 68.4605 70.7111C68.4605 69.8015 68.7389 69.1157 69.2956 68.6539C69.8524 68.1851 70.628 67.9507 71.6228 67.9507H73.6827C74.6775 67.9507 75.4532 68.1851 76.0099 68.6539C76.5667 69.1157 76.845 69.8015 76.845 70.7111C76.845 71.6137 76.5667 72.2996 76.0099 72.7683C75.4532 73.2301 74.6775 73.461 73.6827 73.461H71.6228ZM71.6228 72.254H73.6827C74.1653 72.254 74.5328 72.128 74.7851 71.8761C75.045 71.6242 75.1748 71.2359 75.1748 70.7111C75.1748 70.1794 75.045 69.7875 74.7851 69.5356C74.5328 69.2837 74.1653 69.1577 73.6827 69.1577H71.6228C71.1402 69.1577 70.7692 69.2837 70.5093 69.5356C70.257 69.7875 70.1307 70.1794 70.1307 70.7111C70.1307 71.2359 70.257 71.6242 70.5093 71.8761C70.7692 72.128 71.1402 72.254 71.6228 72.254ZM77.8499 73.4086V68.0031H82.237C82.8828 68.0031 83.3578 68.157 83.6623 68.465C83.9667 68.7658 84.1188 69.1646 84.1188 69.6615V70.7846H82.482V69.8504C82.482 69.4306 82.2593 69.2207 81.8139 69.2207H79.4867V73.4086H77.8499ZM92.5056 73.4086V70.7321L88.2855 65.904H90.4902L93.3964 69.3046L96.2914 65.904H98.4961L94.2983 70.7216V73.4086H92.5056ZM100.602 73.461C99.6069 73.461 98.8313 73.2301 98.2745 72.7683C97.7178 72.2996 97.4394 71.6137 97.4394 70.7111C97.4394 69.8015 97.7178 69.1157 98.2745 68.6539C98.8313 68.1851 99.6069 67.9507 100.602 67.9507H102.662C103.656 67.9507 104.432 68.1851 104.989 68.6539C105.546 69.1157 105.824 69.8015 105.824 70.7111C105.824 71.6137 105.546 72.2996 104.989 72.7683C104.432 73.2301 103.656 73.461 102.662 73.461H100.602ZM100.602 72.254H102.662C103.144 72.254 103.512 72.128 103.764 71.8761C104.024 71.6242 104.154 71.2359 104.154 70.7111C104.154 70.1794 104.024 69.7875 103.764 69.5356C103.512 69.2837 103.144 69.1577 102.662 69.1577H100.602C100.119 69.1577 99.7481 69.2837 99.4882 69.5356C99.2359 69.7875 99.1097 70.1794 99.1097 70.7111C99.1097 71.2359 99.2359 71.6242 99.4882 71.8761C99.7481 72.128 100.119 72.254 100.602 72.254ZM108.655 73.4086C108.002 73.4086 107.523 73.2547 107.219 72.9467C106.922 72.6388 106.773 72.2399 106.773 71.7502V68.0031H108.388V71.5718C108.388 71.9916 108.61 72.2015 109.056 72.2015H111.372C111.817 72.2015 112.04 71.9916 112.04 71.5718V68.0031H113.654V71.7502C113.654 72.2399 113.502 72.6388 113.198 72.9467C112.901 73.2547 112.426 73.4086 111.773 73.4086H108.655Z" fill="#1E1E1E"/>
<path d="M67.5441 20.7924C65.9799 19.7333 61.772 19.2076 61.772 19.2076V0.388367C61.772 0.388367 75.8678 1.22369 82.1085 6.40253C85.924 9.56878 87.8597 12.7664 89.7247 17.2238C91.4952 21.4554 91.4395 28.7589 91.4395 28.7589C91.4395 28.7589 91.0574 34.2155 89.7247 37.418C87.8942 41.8171 85.8903 44.5915 82.1085 47.6935C76.0799 52.6384 61.772 54.5159 61.772 54.5159V45.08V34.9619C61.772 34.9619 65.9661 34.8941 67.5441 33.9648C70.4118 32.276 71.913 29.9522 71.6417 26.7751C71.405 24.0031 69.9403 22.4149 67.5441 20.7924Z" fill="#1E1E1E"/>
<path d="M64.2704 26.1874C63.846 26.1987 63.5371 26.4034 63.3796 26.7751C63.1445 27.3306 63.6362 28.0388 64.2704 28.0556C64.9167 28.0728 65.4565 27.3413 65.2169 26.7751C65.0528 26.3876 64.7129 26.1756 64.2704 26.1874Z" fill="#1E1E1E"/>
<path d="M0.0222893 26.3973C0.0222893 26.3973 4.29808 26.6072 6.48051 26.3973C7.61422 26.2883 7.35634 25.1168 8.49592 25.1168C9.94345 25.1168 9.14858 27.8142 10.9122 27.8142C13.0055 27.8142 12.356 24.6581 14.4531 24.7074C16.8338 24.7633 15.5777 29.3886 17.3815 29.3886C19.6085 29.3886 18.3346 23.9387 21.379 23.4899C24.441 23.0386 23.1939 31.5403 25.0869 31.5403C28.0599 31.5403 25.8886 21.2753 28.7502 21.2753C31.6119 21.2753 29.1288 37.1136 31.9794 37.1136C34.8299 37.1136 32.8813 17.2238 35.999 17.2238C39.1168 17.2238 36.1104 41.8578 38.4932 41.8578C40.8761 41.8578 39.5399 8.19734 41.7335 8.19734C43.9271 8.19734 41.0431 45.5209 43.6376 47.6935C46.232 49.8662 43.8268 5.13251 46.2877 4.52374C48.7485 3.91498 46.9891 51.1572 48.548 51.1572C50.1069 51.1572 49.5056 1.67934 50.942 1.68984C52.3784 1.70034 50.9866 52.4797 52.4341 52.5426C53.8816 52.6056 52.2782 0.388379 54.1823 0.388379C56.0863 0.388379 54.0598 53.5083 55.2289 53.6762C56.3981 53.8441 55.4851 0.388367 56.9549 0.388369C58.4247 0.388371 57.1664 54.5159 58.369 54.5159C59.5715 54.5159 58.0127 0.388404 59.6495 0.388367C61.2863 0.388327 58.5959 54.5159 60.4401 54.5159C62.2842 54.5159 60.9926 2.00474 61.772 0.388369M61.772 0.388369C61.772 0.388369 75.8679 1.2237 82.1085 6.40254C85.924 9.56878 87.8597 12.7664 89.7248 17.2238C91.4952 21.4554 91.4395 28.7589 91.4395 28.7589M61.772 0.388369V19.2076C61.772 19.2076 65.9799 19.7333 67.5441 20.7924C69.9403 22.4149 71.405 24.0031 71.6417 26.7751C71.913 29.9522 70.4118 32.276 67.5441 33.9648C65.9661 34.8942 61.772 34.962 61.772 34.962V45.08V54.5159C61.772 54.5159 76.0799 52.6384 82.1085 47.6935C85.8904 44.5916 87.8942 41.8171 89.7248 37.418C91.0574 34.2155 91.4395 28.7589 91.4395 28.7589M91.4395 28.7589C91.4395 28.7589 91.4952 21.821 93.1543 21.6636C94.8134 21.5062 94.9359 30.1823 97.2074 30.2073C99.4789 30.2321 99.3564 24.0882 101.06 24.0882C102.764 24.0882 101.91 28.808 104.2 28.7589C106.123 28.7177 105.626 25.1783 107.541 25.3477C109.311 25.5043 108.528 28.8726 110.302 28.7589C111.567 28.6776 111.304 26.8167 112.774 26.7751C114.244 26.7338 124.978 26.7751 124.978 26.7751M63.3797 26.7751C63.5371 26.4034 63.846 26.1987 64.2705 26.1874C64.713 26.1756 65.0528 26.3876 65.2169 26.7751C65.4565 27.3413 64.9167 28.0728 64.2705 28.0556C63.6362 28.0388 63.1445 27.3306 63.3797 26.7751Z" stroke="#1E1E1E" stroke-width="0.5"/>
<path d="M73.4122 24.2876L71.4079 21.6321C71.4079 21.6321 73.5099 25.1466 73.4122 27.5833C73.3133 30.0469 70.8846 33.4295 70.8846 33.4295L73.4122 30.942L70.428 35.2768L72.9556 32.9992L71.4079 36.2425L74.2807 33.7549L71.4079 38.3521L75.0824 34.3532L73.4122 38.3521L77.5543 31.8657L74.7372 38.3521L79.5586 33.7549L77.5543 37.4915L81.8524 32.9992L75.6503 41.6584L80.4828 37.4915L78.1779 41.6584L81.2845 38.793L78.1779 44.0409L82.9993 38.3521L80.0151 44.0409L85.8721 35.9171L80.4828 45.8777C80.4828 45.8777 88.7384 36.4324 89.3239 29.1577C89.9203 21.7465 82.9993 11.0837 82.9993 11.0837L86.2173 18.0635L81.8524 11.9444L85.8721 21.3067L79.5586 11.0837L82.9993 17.7381L84.1573 24.2876L82.3201 18.0635L78.1779 11.0837L81.2845 18.0635L78.1779 14.5474L80.4828 21.6321L77.5543 16.8145L79.5586 21.6321L80.0151 25.1483L78.7012 21.6321L76.3406 17.7381L77.1535 20.8239L74.7372 17.7381L76.3406 22.3353L74.2807 20.3936L75.6503 24.2876L72.6105 19.302L73.4122 22.7657L70.1385 18.0635L73.4122 24.2876Z" fill="white" fill-opacity="0.99"/>
</svg>
